<svg width="26" height="26" viewBox="0 0 26 26" fill="none" xmlns="http://www.w3.org/2000/svg">
<path d="M13 19.2709C9.54085 19.2709 6.72919 16.4592 6.72919 13.0001C6.72919 9.54091 9.54085 6.72925 13 6.72925C16.4592 6.72925 19.2709 9.54091 19.2709 13.0001C19.2709 16.4592 16.4592 19.2709 13 19.2709ZM13 7.60425C10.025 7.60425 7.60419 10.0251 7.60419 13.0001C7.60419 15.9751 10.025 18.3959 13 18.3959C15.975 18.3959 18.3959 15.9751 18.3959 13.0001C18.3959 10.0251 15.975 7.60425 13 7.60425Z" fill="#72D7F0"/>
<path d="M14.4583 13.4375H10.9583C10.7191 13.4375 10.5208 13.2392 10.5208 13C10.5208 12.7608 10.7191 12.5625 10.9583 12.5625H14.4583C14.6975 12.5625 14.8958 12.7608 14.8958 13C14.8958 13.2392 14.6975 13.4375 14.4583 13.4375Z" fill="#72D7F0"/>
<path d="M13.2917 15.1875C13.1809 15.1875 13.07 15.1467 12.9825 15.0592C12.8134 14.89 12.8134 14.61 12.9825 14.4408L14.4234 13L12.9825 11.5592C12.8134 11.39 12.8134 11.11 12.9825 10.9408C13.1517 10.7717 13.4317 10.7717 13.6009 10.9408L15.3509 12.6908C15.52 12.86 15.52 13.14 15.3509 13.3092L13.6009 15.0592C13.5134 15.1467 13.4025 15.1875 13.2917 15.1875Z" fill="#72D7F0"/>
</svg>
